<svg width="1880" height="1036" viewBox="0 0 1880 1036" fill="none" xmlns="http://www.w3.org/2000/svg">
<g opacity="0.15" clip-path="url(#clip0_309_1298)">
<path d="M1843.77 77.7444H1879.99V47.9882V21.8701L1850.25 37.1668V47.9882H1858.92V55.3782H1843.77V38.0454L1879.99 7.22459V0H1832.8H1818.08V30.242H1832.8V21.4257H1840.12L1837.66 36.8361H1810.86V0H1781.79H1767.07V30.242H1781.79V21.4257H1789.02V36.8361H1759.85V0H1730.79H1716.06V30.242H1730.79V21.4257H1738.01V36.8361H1708.84V0H1679.78H1665.05V30.242H1679.78V21.4257H1687V36.8361H1657.84V0H1628.77H1614.04V30.242H1628.77V21.4257H1636V36.8361H1606.83V0H1577.76H1563.04V30.242H1577.76V21.4257H1584.99V36.8361H1555.82V0H1526.75H1512.03V30.242H1526.75V21.4257H1533.98V36.8361H1504.81V0H1475.74H1461.02V30.242H1475.74V21.4257H1482.97V36.8361H1453.8V0H1424.74H1410.01V30.242H1424.74V21.4257H1431.96V36.8361H1402.79V0H1373.73H1359V30.242H1373.73V21.4257H1380.95V36.8361H1351.79V0H1322.72H1307.99V30.242H1322.72V21.4257H1329.95V36.8361H1300.78V0H1271.71H1256.99V30.242H1271.71V21.4257H1278.94V36.8361H1249.77V0H1220.7H1205.98V30.242H1220.7V21.4257H1227.93V36.8361H1198.76V0H1169.69H1154.97V30.242H1169.69V21.4257H1176.92V36.8361H1147.75V0H1118.69H1103.96V30.242H1118.69V21.4257H1125.91V36.8361H1096.74V0H1067.68H1052.95V30.242H1067.68V21.4257H1074.9V36.8361H1045.74V0H1016.67H1001.94V30.242H1016.67V21.4257H1023.9V36.8361H994.728V0H965.662H950.935V30.242H965.662V21.4257H972.888V36.8361H943.72V0H914.653H899.927V30.242H914.653V21.4257H921.879V36.8361H892.711V0H863.645H848.919V30.242H863.645V21.4257H870.871V36.8361H841.703V0H812.637H797.911V30.242H812.637V21.4257H819.863V36.8361H790.695V0H761.628H746.902V30.242H761.628V21.4257H768.854V36.8361H739.686V0H710.62H695.894V30.242H710.62V21.4257H717.846V36.8361H688.678V0H659.612H644.886V30.242H659.612V21.4257H666.838V36.8361H637.67V0H608.604H593.877V30.242H608.604V21.4257H615.83V36.8361H586.662V0H557.595H542.869V30.242H557.595V21.4257H564.821V36.8361H535.653V0H506.587H491.861V30.242H506.587V21.4257H513.813V36.8361H484.645V0H455.579H440.852V30.242H455.579V21.4257H462.805V36.8361H433.637V0H404.57H389.844V30.242H404.57V21.4257H411.796V36.8361H382.628V0H353.562H338.836V30.242H353.562V21.4257H360.788V36.8361H331.62V0H302.554H287.827V30.242H302.554V21.4257H309.78V36.8361H280.612V0H251.545H236.819V30.242H251.545V21.4257H258.771V36.8361H229.603V0H200.537H185.811V30.242H200.537V21.4257H207.763V36.8361H178.595V0H149.529H134.803V30.242H149.529V21.4257H156.755V36.8361H127.587V0H98.5205H83.7943V30.242H98.5205V21.4257H105.746V36.8361H76.5785V0H47.5122H21.8302L36.8715 30.242H47.5122V21.4257H54.7381V36.8361H37.7455L7.10397 0H0V47.9882V63.0575H29.7371V47.9882H21.068V40.5466L36.2211 43.0478V70.4475H0V100.204V115.273H29.7371V100.204H21.068V92.8138H36.2211V122.673H0V152.43V167.499H29.7371V152.43H21.068V145.04H36.2211V174.899H0V204.655V219.725H29.7371V204.655H21.068V197.265H36.2211V227.125H0V256.881V271.951H29.7371V256.881H21.068V249.491H36.2211V279.351H0V309.107V324.176H29.7371V309.107H21.068V301.717H36.2211V331.577H0V361.333V376.402H29.7371V361.333H21.068V353.943H36.2211V383.802H0V413.559V428.628H29.7371V413.559H21.068V406.169H36.2211V436.028H0V465.784V480.854H29.7371V465.784H21.068V458.395H36.2211V488.254H0V518.01V533.08H29.7371V518.01H21.068V510.62H36.2211V540.48H0V570.236V585.305H29.7371V570.236H21.068V562.846H36.2211V592.706H0V622.462V637.531H29.7371V622.462H21.068V615.072H36.2211V644.932H0V674.688V689.757H29.7371V674.688H21.068V667.298H36.2211V697.157H0V726.914V741.983H29.7371V726.914H21.068V719.524H36.2211V749.383H0V779.139V794.209H29.7371V779.139H21.068V771.749H36.2211V801.609H0V831.365V846.435H29.7371V831.365H21.068V823.975H36.2211V853.835H0V883.591V898.66H29.7371V883.591H21.068V876.201H36.2211V906.061H0V935.817V950.886H29.7371V935.817H21.068V928.427H36.2211V958.286H0V988.043V1014.16L29.7371 998.864V988.043H21.068V980.653H36.2211V997.986L0 1028.78V1036H47.187H61.9132V1005.76H47.187V1014.57H39.8696L42.3291 999.164H69.129V1036H98.1953H112.922V1005.76H98.1953V1014.57H90.9694V999.164H120.137V1036H149.204H163.93V1005.76H149.204V1014.57H141.978V999.164H171.146V1036H200.212H214.938V1005.76H200.212V1014.57H192.986V999.164H222.154V1036H251.22H265.946V1005.76H251.22V1014.57H243.994V999.164H273.162V1036H302.229H316.955V1005.76H302.229V1014.57H295.003V999.164H324.171V1036H353.237H367.963V1005.76H353.237V1014.57H346.011V999.164H375.179V1036H404.245H418.971V1005.76H404.245V1014.57H397.019V999.164H426.187V1036H455.253H469.98V1005.76H455.253V1014.57H448.027V999.164H477.195V1036H506.262H520.988V1005.76H506.262V1014.57H499.036V999.164H528.204V1036H557.27H571.996V1005.76H557.27V1014.57H550.044V999.164H579.212V1036H608.278H623.005V1005.76H608.278V1014.57H601.052V999.164H630.22V1036H659.287H674.013V1005.76H659.287V1014.57H652.061V999.164H681.229V1036H710.295H725.021V1005.76H710.295V1014.57H703.069V999.164H732.237V1036H761.303H776.03V1005.76H761.303V1014.57H754.077V999.164H783.245V1036H812.312H827.038V1005.76H812.312V1014.57H805.086V999.164H834.254V1036H863.32H878.046V1005.76H863.32V1014.57H856.094V999.164H885.262V1036H914.328H929.054V1005.76H914.328V1014.57H907.102V999.164H936.27V1036H965.336H980.063V1005.76H965.336V1014.57H958.111V999.164H987.279V1036H1016.34H1031.07V1005.76H1016.34V1014.57H1009.12V999.164H1038.29V1036H1067.35H1082.08V1005.76H1067.35V1014.57H1060.13V999.164H1089.3V1036H1118.36H1133.09V1005.76H1118.36V1014.57H1111.14V999.164H1140.3V1036H1169.37H1184.1V1005.76H1169.37V1014.57H1162.14V999.164H1191.31V1036H1220.38H1235.1V1005.76H1220.38V1014.57H1213.15V999.164H1242.32V1036H1271.39H1286.11V1005.76H1271.39V1014.57H1264.16V999.164H1293.33V1036H1322.39H1337.12V1005.76H1322.39V1014.57H1315.17V999.164H1344.34V1036H1373.4H1388.13V1005.76H1373.4V1014.57H1366.18V999.164H1395.34V1036H1424.41H1439.14V1005.76H1424.41V1014.57H1417.19V999.164H1446.35V1036H1475.42H1490.15V1005.76H1475.42V1014.57H1468.19V999.164H1497.36V1036H1526.43H1541.15V1005.76H1526.43V1014.57H1519.2V999.164H1548.37V1036H1577.44H1592.16V1005.76H1577.44V1014.57H1570.21V999.164H1599.38V1036H1628.44H1643.17V1005.76H1628.44V1014.57H1621.22V999.164H1650.39V1036H1679.45H1694.18V1005.76H1679.45V1014.57H1672.23V999.164H1701.39V1036H1730.46H1745.19V1005.76H1730.46V1014.57H1723.24V999.164H1752.4V1036H1781.47H1796.2V1005.76H1781.47V1014.57H1774.24V999.164H1803.41V1036H1832.48H1858.16L1843.12 1005.76H1832.48V1014.57H1825.25V999.164H1842.24L1872.55 1036H1879.65V988.012V972.942H1849.92V988.012H1858.59V995.453L1843.43 992.952V965.552H1879.65V935.796V920.727H1849.92V935.796H1858.59V943.186H1843.43V913.327H1879.65V883.57V868.501H1849.92V883.57H1858.59V890.96H1843.43V861.101H1879.65V831.345V816.275H1849.92V831.345H1858.59V838.735H1843.43V808.875H1879.65V779.119V764.049H1849.92V779.119H1858.59V786.509H1843.43V756.649H1879.65V726.893V711.824H1849.92V726.893H1858.59V734.283H1843.43V704.423H1879.65V674.667V659.598H1849.92V674.667H1858.59V682.057H1843.43V652.198H1879.65V622.441V607.372H1849.92V622.441H1858.59V629.831H1843.43V599.972H1879.65V570.215V555.146H1849.92V570.215H1858.59V577.605H1843.43V547.746H1879.65V517.99V502.92H1849.92V517.99H1858.59V525.38H1843.43V495.52H1879.65V465.764V450.694H1849.92V465.764H1858.59V473.154H1843.43V443.294H1879.65V413.538V398.469H1849.92V413.538H1858.59V420.928H1843.43V391.068H1879.65V361.312V346.243H1849.92V361.312H1858.59V368.702H1843.43V338.843H1879.65V309.086V294.017H1849.92V309.086H1858.59V316.476H1843.43V286.617H1879.65V256.861V241.791H1849.92V256.861H1858.59V264.25H1843.43V234.391H1879.65V204.635V189.565H1849.92V204.635H1858.59V212.025H1843.43V182.165H1879.65V152.409V137.34H1849.92V152.409H1858.59V159.799H1843.43V129.939H1879.65V100.183V85.1137H1849.92V100.183H1858.59V107.573H1843.43V77.7134L1843.77 77.7444ZM1866.22 115.087V100.204H1865.99V100.007H1857.55V92.6174H1872.7V100.204V122.477H1836.48V167.302H1866.22V152.419H1865.99V152.223H1857.55V144.833H1872.7V152.419V174.692H1836.48V219.518H1866.22V204.635H1865.99V204.438H1857.55V197.048H1872.7V204.635V226.908H1836.48V271.733H1866.22V256.85H1865.99V256.654H1857.55V249.264H1872.7V256.85V279.123H1836.48V323.949H1866.22V309.066H1865.99V308.869H1857.55V301.479H1872.7V309.066V331.339H1836.48V376.164H1866.22V361.281H1865.99V361.085H1857.55V353.695H1872.7V361.281V383.554H1836.48V428.38H1866.22V413.497H1865.99V413.3H1857.55V405.91H1872.7V413.497V435.77H1836.48V480.595H1866.22V465.712H1865.99V465.516H1857.55V458.126H1872.7V465.712V487.985H1836.48V532.811H1866.22V517.928H1865.99V517.731H1857.55V510.341H1872.7V517.928V540.201H1836.48V585.026H1866.22V570.143H1865.99V569.947H1857.55V562.557H1872.7V570.143V592.416H1836.48V637.242H1866.22V622.359H1865.99V622.162H1857.55V614.772H1872.7V622.359V644.632H1836.48V689.457H1866.22V674.574H1865.99V674.378H1857.55V666.988H1872.7V674.574V696.847H1836.48V741.673H1866.22V726.79H1865.99V726.593H1857.55V719.203H1872.7V726.79V749.063H1836.48V793.888H1866.22V779.005H1865.99V778.809H1857.55V771.419H1872.7V779.005V801.278H1836.48V846.104H1866.22V831.221H1865.99V831.024H1857.55V823.634H1872.7V831.221V853.494H1836.48V898.319H1866.22V883.436H1865.99V883.24H1857.55V875.85H1872.7V883.436V905.709H1836.48V950.535H1866.22V935.652H1865.99V935.455H1857.55V928.065H1872.7V935.652V957.925H1836.48V991.609L1866.22 1006.65V987.877H1865.99V987.681H1857.55V980.291H1872.7V987.877V1022.12L1836.48 991.609H1818.27V1021.85H1832.8V1021.61H1833V1013.03H1840.08L1842.67 1028.44H1832.81H1811.05V991.609H1767.26V1021.85H1781.79V1021.61H1781.99V1013.03H1789.2V1028.44H1781.79H1760.04V991.609H1716.24V1021.85H1730.78V1021.61H1730.97V1013.03H1738.19V1028.44H1730.78H1709.02V991.609H1665.22V1021.85H1679.76V1021.61H1679.95V1013.03H1687.17V1028.44H1679.76H1658V991.609H1614.21V1021.85H1628.74V1021.61H1628.93V1013.03H1636.15V1028.44H1628.74H1606.98V991.609H1563.19V1021.85H1577.72V1021.61H1577.91V1013.03H1585.13V1028.44H1577.72H1555.96V991.609H1512.17V1021.85H1526.7V1021.61H1526.9V1013.03H1534.11V1028.44H1526.7H1504.94V991.609H1461.15V1021.85H1475.68V1021.61H1475.88V1013.03H1483.09V1028.44H1475.68H1453.92V991.609H1410.13V1021.85H1424.67V1021.61H1424.86V1013.03H1432.07V1028.44H1424.67H1402.91V991.609H1359.11V1021.85H1373.65V1021.61H1373.84V1013.03H1381.06V1028.44H1373.65H1351.89V991.609H1308.1V1021.85H1322.63V1021.61H1322.82V1013.03H1330.04V1028.44H1322.63H1300.87V991.609H1257.08V1021.85H1271.61V1021.61H1271.8V1013.03H1279.02V1028.44H1271.61H1249.85V991.609H1206.06V1021.85H1220.59V1021.61H1220.78V1013.03H1228V1028.44H1220.59H1198.83V991.609H1155.04V1021.85H1169.57V1021.61H1169.77V1013.03H1176.98V1028.44H1169.57H1147.81V991.609H1104.02V1021.85H1118.55V1021.61H1118.75V1013.03H1125.96V1028.44H1118.55H1096.8V991.609H1053V1021.85H1067.54V1021.61H1067.73V1013.03H1074.94V1028.44H1067.54H1045.78V991.609H1001.98V1021.85H1016.52V1021.61H1016.71V1013.03H1023.93V1028.44H1016.52H994.758V991.609H950.966V1021.85H965.499V1021.61H965.692V1013.03H972.908V1028.44H965.499H943.74V991.609H899.948V1021.85H914.481V1021.61H914.674V1013.03H921.889V1028.44H914.481H892.722V991.609H848.929V1021.85H863.462V1021.61H863.655V1013.03H870.871V1028.44H863.462H841.703V991.609H797.911V1021.85H812.444V1021.61H812.637V1013.03H819.853V1028.44H812.444H790.685V991.609H746.892V1021.85H761.425V1021.61H761.618V1013.03H768.834V1028.44H761.425H739.666V991.609H695.874V1021.85H710.407V1021.61H710.6V1013.03H717.816V1028.44H710.407H688.648V991.609H644.855V1021.85H659.388V1021.61H659.581V1013.03H666.797V1028.44H659.388H637.629V991.609H593.837V1021.85H608.37V1021.61H608.563V1013.03H615.779V1028.44H608.37H586.611V991.609H542.818V1021.85H557.351V1021.61H557.544V1013.03H564.76V1028.44H557.351H535.592V991.609H491.8V1021.85H506.333V1021.61H506.526V1013.03H513.742V1028.44H506.333H484.574V991.609H440.781V1021.85H455.314V1021.61H455.508V1013.03H462.723V1028.44H455.314H433.555V991.609H389.763V1021.85H404.296V1021.61H404.489V1013.03H411.705V1028.44H404.296H382.537V991.609H338.744V1021.85H353.277V1021.61H353.471V1013.03H360.686V1028.44H353.277H331.518V991.609H287.726V1021.85H302.259V1021.61H302.452V1013.03H309.668V1028.44H302.259H280.5V991.609H236.707V1021.85H251.241V1021.61H251.434V1013.03H258.649V1028.44H251.241H229.481V991.609H185.689V1021.85H200.222V1021.61H200.415V1013.03H207.631V1028.44H200.222H178.463V991.609H134.67V1021.85H149.204V1021.61H149.397V1013.03H156.612V1028.44H149.204H127.445V991.609H83.652V1021.85H98.1851V1021.61H98.3782V1013.03H105.594V1028.44H98.1851H76.4261V991.609H43.4978L28.7106 1021.85H47.1667V1021.61H47.3598V1013.03H54.5755V1028.44H47.1667H13.4965L43.4978 991.609V972.994H13.7811V987.877H14.0148V988.074H22.4502V995.278L7.29706 997.913V987.888V965.615H43.5181V920.789H13.7811V935.672H14.0148V935.869H22.4502V943.259H7.2869V935.672V913.399H43.508V868.573H13.7811V883.457H14.0148V883.653H22.4502V891.043H7.2869V883.457V861.183H43.508V816.358H13.7811V831.241H14.0148V831.438H22.4502V838.828H7.2869V831.241V808.968H43.508V764.143H13.7811V779.026H14.0148V779.222H22.4502V786.612H7.2869V779.026V756.753H43.508V711.927H13.7811V726.81H14.0148V727.007H22.4502V734.397H7.2869V726.81V704.537H43.508V659.711H13.7811V674.595H14.0148V674.791H22.4502V682.181H7.2869V674.595V652.322H43.508V607.496H13.7811V622.379H14.0148V622.576H22.4502V629.966H7.2869V622.379V600.106H43.508V555.281H13.7811V570.164H14.0148V570.36H22.4502V577.75H7.2869V570.164V547.891H43.508V503.065H13.7811V517.948H14.0148V518.145H22.4502V525.535H7.2869V517.948V495.675H43.508V450.85H13.7811V465.733H14.0148V465.929H22.4502V473.319H7.2869V465.733V443.46H43.508V398.634H13.7811V413.517H14.0148V413.714H22.4502V421.104H7.2869V413.517V391.244H43.508V346.419H13.7811V361.302H14.0148V361.498H22.4502V368.888H7.2869V361.302V339.029H43.508V294.203H13.7811V309.086H14.0148V309.283H22.4502V316.673H7.2869V309.086V286.813H43.508V241.988H13.7811V256.871H14.0148V257.067H22.4502V264.457H7.2869V256.871V234.598H43.508V189.772H13.7811V204.655H14.0148V204.852H22.4502V212.242H7.2869V204.655V182.382H43.508V137.557H13.7811V152.44H14.0148V152.636H22.4502V160.026H7.2869V152.44V130.167H43.508V85.3411H13.7811V100.224H14.0148V100.421H22.4502V107.811H7.2869V100.224V77.9511H43.508V44.2674L13.7709 29.2291V47.9986H14.0047V48.1949H22.44V55.5849H7.2869V47.9986V13.7464L43.508 44.2571H61.7201V14.0151H47.187V14.2528H46.9939V22.8314H39.9103L37.3187 7.42097H47.1768H68.9359V44.2571H112.728V14.0151H98.1953V14.2528H98.0022V22.8314H90.7865V7.41063H98.1953H119.954V44.2467H163.747V14.0151H149.214V14.2528H149.021V22.8314H141.805V7.41063H149.214H170.973V44.2467H214.765V14.0151H200.232V14.2528H200.039V22.8314H192.823V7.41063H200.232H221.991V44.2467H265.784V14.0151H251.251V14.2528H251.058V22.8314H243.842V7.41063H251.251H273.01V44.2467H316.802V14.0151H302.269V14.2528H302.076V22.8314H294.86V7.41063H302.269H324.028V44.2467H367.821V14.0151H353.288V14.2528H353.095V22.8314H345.879V7.41063H353.288H375.047V44.2467H418.839V14.0151H404.306V14.2528H404.113V22.8314H396.897V7.41063H404.306H426.065V44.2467H469.858V14.0151H455.325V14.2528H455.131V22.8314H447.916V7.41063H455.325H477.084V44.2467H520.876V14.0151H506.343V14.2528H506.15V22.8314H498.934V7.41063H506.343H528.102V44.2467H571.895V14.0151H557.362V14.2528H557.168V22.8314H549.953V7.41063H557.362H579.121V44.2467H622.913V14.0151H608.38V14.2528H608.187V22.8314H600.971V7.41063H608.38H630.139V44.2467H673.932V14.0151H659.398V14.2528H659.205V22.8314H651.99V7.41063H659.398H681.157V44.2467H724.95V14.0151H710.417V14.2528H710.224V22.8314H703.008V7.41063H710.417H732.176V44.2467H775.969V14.0151H761.435V14.2528H761.242V22.8314H754.026V7.41063H761.435H783.194V44.2467H826.987V14.0151H812.454V14.2528H812.261V22.8314H805.045V7.41063H812.454H834.213V44.2467H878.005V14.0151H863.472V14.2528H863.279V22.8314H856.063V7.41063H863.472H885.231V44.2467H929.024V14.0151H914.491V14.2528H914.298V22.8314H907.082V7.41063H914.491H936.25V44.2467H980.042V14.0151H965.509V14.2528H965.316V22.8314H958.1V7.41063H965.509H987.268V44.2467H1031.06V14.0151H1016.53V14.2528H1016.33V22.8314H1009.12V7.41063H1016.53H1038.29V44.2467H1082.08V14.0151H1067.55V14.2528H1067.35V22.8314H1060.14V7.41063H1067.55H1089.31V44.2467H1133.1V14.0151H1118.56V14.2528H1118.37V22.8314H1111.16V7.41063H1118.56H1140.32V44.2467H1184.12V14.0151H1169.58V14.2528H1169.39V22.8314H1162.17V7.41063H1169.58H1191.34V44.2467H1235.13V14.0151H1220.6V14.2528H1220.41V22.8314H1213.19V7.41063H1220.6H1242.36V44.2467H1286.15V14.0151H1271.62V14.2528H1271.43V22.8314H1264.21V7.41063H1271.62H1293.38V44.2467H1337.17V14.0151H1322.64V14.2528H1322.45V22.8314H1315.23V7.41063H1322.64H1344.4V44.2467H1388.19V14.0151H1373.66V14.2528H1373.46V22.8314H1366.25V7.41063H1373.66H1395.42V44.2467H1439.21V14.0151H1424.68V14.2528H1424.48V22.8314H1417.27V7.41063H1424.68H1446.43V44.2467H1490.23V14.0151H1475.69V14.2528H1475.5V22.8314H1468.29V7.41063H1475.69H1497.45V44.2467H1541.25V14.0151H1526.71V14.2528H1526.52V22.8314H1519.3V7.41063H1526.71H1548.47V44.2467H1592.26V14.0151H1577.73V14.2528H1577.54V22.8314H1570.32V7.41063H1577.73H1599.49V44.2467H1643.28V14.0151H1628.75V14.2528H1628.56V22.8314H1621.34V7.41063H1628.75H1650.51V44.2467H1694.3V14.0151H1679.77V14.2528H1679.57V22.8314H1672.36V7.41063H1679.77H1701.53V44.2467H1745.32V14.0151H1730.79V14.2528H1730.59V22.8314H1723.38V7.41063H1730.79H1752.55V44.2467H1796.34V14.0151H1781.8V14.2528H1781.61V22.8314H1774.4V7.41063H1781.8H1803.56V44.2467H1836.49L1851.28 14.0047H1832.82V14.2425H1832.63V22.821H1825.41V7.41063H1832.82H1866.49L1836.49 44.2467V62.8612H1866.23V47.9779H1866V47.7815H1857.56V40.5776L1872.71 37.942V47.9676V70.2408H1836.49V115.066H1866.23L1866.22 115.087Z" fill="#CFFF08"/>
</g>
<defs>
<clipPath id="clip0_309_1298">
<rect width="1880" height="1036" fill="white"/>
</clipPath>
</defs>
</svg>
