<svg id="Layer_1" data-name="Layer 1" xmlns="http://www.w3.org/2000/svg" viewBox="0 0 1314.23 663.06"><defs><style>.cls-1{fill:#ceff06;}</style></defs><path class="cls-1" d="M17.7,192.66l91.81-116.5,9.38,7L45.58,178.09c42.39-9.51,79.15-18.81,116.33-25.9,138.43-26.36,277.49-32.54,417.77-15.35,144.7,17.74,280.81,59.84,405.47,136.09,137.31,84,237.19,198.12,291.1,351.75a270.24,270.24,0,0,1,8.49,27.75l-5.47,2.25c-2.83-3.82-85.12-278.88-361-404.59C808.79,193.85,691.89,162.53,569.88,148c-151.6-18.07-301.31-7.57-449.81,25.81-22.84,5.13-45.46,11.27-74.54,18.53L153,251.08q-2.69,4.95-5.38,9.88Z"/><path class="cls-1" d="M305.19,18.79l20.61-1,5,100.26-20.62,1ZM325.4,59.25l79.49-4,.87,17.2-79.5,4Zm74-45.2L420,13l5,100.26-20.61,1Z"/><path class="cls-1" d="M512,119q-20-1.18-33.78-8.3T457.58,91.48q-6.82-12.06-5.85-28.32,1-16.42,9.18-27.59T483.66,19q14.55-5.43,34.52-4.24,20.15,1.2,33.86,8.32t20.54,19.17q6.82,12.06,5.84,28.48t-9.17,27.43q-8.21,11.18-22.67,16.61T512,119ZM513,101.16a59,59,0,0,0,22-2.42,32,32,0,0,0,15.39-10.43q5.79-7.28,6.48-18.89t-4.2-19.52a32.4,32.4,0,0,0-14-12.26,57.83,57.83,0,0,0-21.54-5.09A59,59,0,0,0,495.06,35a32.71,32.71,0,0,0-15.7,10.49q-5.88,7.26-6.57,18.88t4.28,19.53a32.18,32.18,0,0,0,14.35,12.2A60.31,60.31,0,0,0,513,101.16Z"/><path class="cls-1" d="M634,129.92,606.76,23.59l22.5,3.76L651.83,123l-7-1.18,52.27-83.14,22.19,3.71L659.4,134.16Z"/><path class="cls-1" d="M752,111.1l-6.71,23.74,74.5,21.07-4.68,16.57L720.74,145.8l27.33-96.6,94.21,26.64-4.69,16.57-74.35-21-6.8,24,60.91,17.23-4.43,15.68Z"/><path class="cls-1" d="M838,180.27l39.8-92.16,62.53,27a58.46,58.46,0,0,1,17.33,10.95,27.76,27.76,0,0,1,8.39,14.44q1.74,8.1-2.45,17.79a26.81,26.81,0,0,1-7.07,10.12,21.34,21.34,0,0,1-9.54,4.67,33.46,33.46,0,0,1-11.21.32,60.48,60.48,0,0,1-12.08-2.94l-1.5-2a86,86,0,0,1,15.67,8.71q5.76,4.26,7.28,9.57t-1.81,13l-9.48,21.94L915,213.49l8.92-20.65q2.28-5.26,1.69-9c-.4-2.48-2-4.79-4.88-6.92a69,69,0,0,0-13.25-7.08l-35.75-15.44L857,188.46Zm40-40.67,43.59,18.82q8,3.45,13.84,1.42t8.7-8.59q2.7-6.25-.08-11.36t-10.77-8.53l-43.59-18.83Z"/><path class="cls-1" d="M1062.43,292.09l-7.78-5.91,100.49-36.87,16.43,12.48-60.72,79.94-16.44-12.48,44.12-58.07,3.11,4.11-80,29.08-18.41-14,6.39-84.59,4.8,1.89-43.93,57.83L994.09,253l60.72-79.94,16.44,12.49Z"/><path class="cls-1" d="M1172.69,348.9l-18.62,16.18,50.79,58.44-13,11.3-64.33-74L1203.31,295l64.22,73.9-13,11.3-50.69-58.33L1185,338.21,1226.51,386l-12.29,10.69Z"/></svg>