<svg width="71" height="71" viewBox="0 0 71 71" fill="none" xmlns="http://www.w3.org/2000/svg">
<path d="M33.4071 0.952236C28.6634 0.768599 23.7515 1.50695 19.2901 3.0455L20.7405 7.61263L17.5496 3.71154C13.1791 5.42422 9.22347 8.02368 5.80153 11.1807C7.30896 12.1921 9.20219 13.1227 10.5878 14.273C12.5052 15.8649 9.88871 14.2369 8.26718 13.607C7.76245 13.411 4.78433 12.4005 4.49619 12.4652C2.85145 14.2702 1.2744 16.1389 0 18.2217C5.79573 19.0457 11.6214 21.4758 15.229 26.1666C21.5643 20.2893 29.6835 17.7612 38.3384 19.6014C45.8746 21.2037 51.4905 26.6052 52.8906 34.1115C53.7763 38.8604 52.6943 43.3676 53.3741 48.1935C54.6949 57.5694 61.24 64.9263 70.4402 67.5562C66.6693 62.4819 64.0421 56.1327 65.0738 49.7159C65.3716 47.8671 66.6712 44.5093 67.1044 42.3894C63.3575 40.4608 63.7569 41.4551 67.4911 40.5816C68.7404 35.1106 68.4929 29.3465 66.7176 24.0258L66.5726 23.883C64.8814 24.2551 63.1274 24.3036 61.3995 24.4064C61.3212 24.1504 65.6511 22.6214 66.0408 22.3131C64.5498 18.7878 62.4264 15.5575 59.8041 12.7507L52.5522 17.9838C54.2724 15.6004 56.4682 13.5851 58.4021 11.371C57.1431 10.1198 55.744 9.02083 54.2927 7.99323L51.0051 11.038C51.1424 10.2521 53.1652 7.44708 53.084 7.18447C51.5669 6.25011 50.0208 5.31099 48.3944 4.56788C47.7969 4.2948 43.8895 2.67347 43.6082 2.90278C42.18 6.4718 40.7751 10.0532 39.3054 13.607L41.4809 2.23674C41.3775 1.78098 34.2464 0.984586 33.4071 0.952236Z" fill="#CFFF08"/>
<path d="M11.5064 44.2924C11.2637 43.8443 10.2571 45.8414 11.2163 41.5331C11.4996 40.2581 13.7187 32.9802 14.3104 32.3989C14.4777 32.2342 14.5048 32.2428 14.7455 32.2561C14.8142 32.2599 15.0424 32.3161 15.3798 32.4055L15.7125 31.6852C16.077 30.9602 16.4928 30.2628 16.953 29.5948L15.6641 26.7851C20.813 21.7184 27.0612 19.0238 34.4707 19.5062C46.6598 20.2998 53.698 29.1238 52.6972 40.9622L50.571 41.5379C50.1117 44.7967 49.4754 47.9946 49.9898 50.9528C50.4404 53.5409 54.1186 57.0842 55.9848 58.9453C48.8808 57.8844 40.9975 57.6303 34.5674 61.1813C35.0548 58.1042 36.1832 55.0994 36.598 52.047C34.3915 56.3268 32.1675 60.7379 28.7659 64.226C22.1696 66.5353 15.5394 68.7532 8.84733 70.7913C9.94962 63.1604 11.1167 55.4895 13.3435 48.0984C17.3495 46.753 21.5208 45.7139 25.5751 44.4351C27.1115 43.9984 28.6654 41.3761 28.6209 41.1525C28.5832 40.9641 28.5735 41.0022 28.2825 41.0098C27.8957 41.0203 21.923 42.4836 20.7405 42.7225C18.3425 43.2068 15.8972 43.5227 13.4885 43.9594C12.2789 47.2068 11.4077 50.5751 10.4427 53.9024C9.96315 53.9814 7.25094 54.2079 7.15521 53.9024L11.5064 44.2924Z" fill="#CFFF08"/>
</svg>
