<svg width="739" height="455" viewBox="0 0 739 455" fill="none" xmlns="http://www.w3.org/2000/svg">
<g opacity="0.7" clip-path="url(#clip0_271_518)">
<path d="M186.711 17.9921C179.21 12.3014 170.443 8.08241 160.412 5.33516C150.381 2.60018 139.662 1.22656 128.256 1.22656H1.22778V205.97H43.3658V139.521H128.268C139.674 139.521 150.393 138.307 160.424 135.878C170.455 133.45 179.222 129.55 186.724 124.166C194.213 118.782 200.082 111.779 204.306 103.12C208.529 94.4734 210.641 84.0241 210.641 71.7964C210.641 59.5687 208.529 48.6901 204.306 39.8352C200.082 30.9802 194.213 23.6951 186.724 18.0044L186.711 17.9921ZM158.668 96.9508C152.124 102.96 143.247 105.965 132.062 105.965H43.3658V37.2964H132.074C143.272 37.2964 152.137 40.2521 158.681 46.1514C165.225 52.0628 168.503 60.5989 168.503 71.7841C168.503 82.9693 165.225 90.929 158.681 96.9386L158.668 96.9508Z" stroke="#CFFF08" stroke-width="4"/>
<path d="M384.387 54.6995C369.494 48.371 352.121 45.2068 332.279 45.2068C312.438 45.2068 294.942 48.371 279.852 54.6995C264.75 61.028 252.976 70.3612 244.528 82.6993C236.081 95.0374 231.858 110.074 231.858 127.796C231.858 145.518 236.081 160.444 244.528 172.573C252.976 184.703 264.75 193.938 279.852 200.267C294.954 206.595 312.426 209.759 332.279 209.759C352.133 209.759 369.506 206.595 384.387 200.267C399.28 193.938 410.944 184.715 419.392 172.573C427.839 160.444 432.063 145.518 432.063 127.796C432.063 110.074 427.839 95.0374 419.392 82.6993C410.944 70.3612 399.28 61.028 384.387 54.6995ZM382.644 155.182C377.573 162.676 370.66 168.367 361.894 172.267C353.127 176.167 343.256 178.117 332.279 178.117C321.303 178.117 311.051 176.167 302.186 172.267C293.321 168.367 286.347 162.664 281.276 155.182C276.206 147.701 273.676 138.564 273.676 127.808C273.676 117.052 276.255 107.559 281.436 99.9554C286.605 92.3637 293.628 86.5626 302.505 82.5521C311.37 78.5416 321.303 76.5425 332.279 76.5425C343.256 76.5425 353.397 78.5539 362.053 82.5521C370.709 86.5626 377.573 92.4128 382.644 100.115C387.714 107.817 390.244 117.04 390.244 127.808C390.244 138.576 387.714 147.689 382.644 155.182Z" stroke="#CFFF08" stroke-width="4"/>
<path d="M522.036 63.4073C517.174 68.7914 513.269 74.384 510.31 80.1728C507.351 85.9739 505.129 91.358 503.655 96.3129V48.6899H462.475V205.97H503.655V119.652C505.804 115.2 508.751 110.638 512.52 105.977C517.8 99.4403 524.761 93.909 533.43 89.3589C542.086 84.8211 552.325 82.5521 564.161 82.5521V45.2068C554.867 45.2068 546.739 46.8993 539.765 50.272C532.791 53.6448 526.885 58.0232 522.023 63.4073H522.036Z" stroke="#CFFF08" stroke-width="4"/>
<path d="M661.096 5.65381H619.916V48.6899H579.362V80.6511H619.916V205.97H661.096V80.6511H701.65V48.6899H661.096V5.65381Z" stroke="#CFFF08" stroke-width="4"/>
<path d="M64.2753 235.11C55.1896 238.912 48.3262 244.873 43.6851 252.992C39.0317 261.111 36.7112 271.499 36.7112 284.168V295.562H1.22778V326.885H36.7112V449.984H77.8916V326.885H127.949V295.562H77.8916V289.233C77.8916 282.059 79.0457 276.527 81.3785 272.615C83.6991 268.715 87.0755 266.029 91.5201 264.545C95.9525 263.073 101.232 262.435 107.359 262.644H130.171V229.419H97.5364C84.4357 229.419 73.3487 231.32 64.2753 235.11Z" stroke="#CFFF08" stroke-width="4"/>
<path d="M296.329 298.714C281.436 292.385 264.063 289.221 244.222 289.221C224.38 289.221 206.884 292.385 191.794 298.714C176.693 305.042 164.918 314.375 156.471 326.713C148.023 339.052 143.8 354.088 143.8 371.81C143.8 389.532 148.023 404.458 156.471 416.588C164.918 428.717 176.693 437.952 191.794 444.281C206.896 450.609 224.368 453.773 244.222 453.773C264.075 453.773 281.448 450.609 296.329 444.281C311.21 437.952 322.887 428.729 331.334 416.588C339.781 404.458 344.005 389.532 344.005 371.81C344.005 354.088 339.781 339.052 331.334 326.713C322.887 314.375 311.223 305.042 296.329 298.714ZM294.586 399.184C289.515 406.678 282.602 412.369 273.836 416.269C265.07 420.169 255.198 422.119 244.222 422.119C233.245 422.119 222.993 420.169 214.128 416.269C205.263 412.369 198.29 406.666 193.219 399.184C188.148 391.703 185.619 382.566 185.619 371.81C185.619 361.054 188.197 351.561 193.378 343.957C198.547 336.366 205.57 330.565 214.447 326.554C223.312 322.544 233.245 320.544 244.222 320.544C255.198 320.544 265.34 322.556 273.996 326.554C282.652 330.565 289.515 336.415 294.586 344.117C299.657 351.819 302.186 361.042 302.186 371.81C302.186 382.578 299.657 391.691 294.586 399.184Z" stroke="#CFFF08" stroke-width="4"/>
<path d="M418.765 229.419H377.585V449.984H418.765V229.419Z" stroke="#CFFF08" stroke-width="4"/>
<path d="M503.975 292.704H462.794V449.984H503.975V292.704Z" stroke="#CFFF08" stroke-width="4"/>
<path d="M725.101 326.726C716.654 314.388 704.99 305.055 690.097 298.726C675.203 292.398 657.83 289.233 637.989 289.233C618.148 289.233 600.652 292.398 585.562 298.726C570.46 305.055 558.685 314.388 550.238 326.726C541.791 339.064 537.567 354.1 537.567 371.822C537.567 389.545 541.791 404.47 550.238 416.6C558.685 428.73 570.46 437.965 585.562 444.293C600.664 450.622 618.135 453.786 637.989 453.786C657.842 453.786 675.216 450.622 690.097 444.293C704.978 437.965 716.654 428.742 725.101 416.6C733.549 404.47 737.772 389.545 737.772 371.822C737.772 354.1 733.549 339.064 725.101 326.726ZM688.353 399.184C683.282 406.678 676.37 412.369 667.603 416.269C658.837 420.169 648.965 422.119 637.989 422.119C627.012 422.119 616.76 420.169 607.896 416.269C599.031 412.369 592.057 406.666 586.986 399.184C581.915 391.703 579.386 382.566 579.386 371.81C579.386 361.054 581.964 351.562 587.146 343.958C592.315 336.366 599.338 330.565 608.215 326.554C617.079 322.544 627.012 320.545 637.989 320.545C648.965 320.545 659.107 322.556 667.763 326.554C676.419 330.565 683.282 336.415 688.353 344.117C693.424 351.819 695.953 361.042 695.953 371.81C695.953 382.578 693.424 391.691 688.353 399.184Z" stroke="#CFFF08" stroke-width="4"/>
<path d="M483.385 277.521C496.682 277.521 507.462 266.753 507.462 253.47C507.462 240.187 496.682 229.419 483.385 229.419C470.087 229.419 459.307 240.187 459.307 253.47C459.307 266.753 470.087 277.521 483.385 277.521Z" stroke="#CFFF08" stroke-width="4"/>
</g>
<defs>
<clipPath id="clip0_271_518">
<rect width="739" height="455" fill="white"/>
</clipPath>
</defs>
</svg>
