<svg width="111" height="111" viewBox="0 0 111 111" fill="none" xmlns="http://www.w3.org/2000/svg">
<path d="M102.796 5.38682C104.291 7.45351 103.839 10.3333 101.753 11.8918L95.2521 16.7028C89.7595 20.7345 85.5183 24.2581 82.5287 27.2734C74.7764 34.8287 70.8481 42.655 70.7438 50.7185L71.3696 53.124L72.1344 54.4792L73.073 55.089L76.1669 55.6989L84.9969 55.3939C91.4977 55.5972 96.9555 58.1721 101.301 63.1186C105.229 67.5569 107.315 73.1471 107.524 79.8893C107.524 87.8511 104.986 94.3222 99.9104 99.3365C94.835 104.317 88.3342 106.824 80.3733 106.824C66.9198 107.027 57.4989 100.082 52.1453 85.9538C49.99 80.9057 48.9471 75.1122 49.0514 68.5733C48.9471 60.3066 50.6157 52.548 54.0226 45.2976C60.419 31.2713 70.8829 19.6504 85.3793 10.3672L96.4341 4.06549C98.5894 2.8458 101.37 3.42177 102.831 5.4207L102.796 5.38682Z" fill="white" stroke="black" stroke-width="4" stroke-linecap="round" stroke-linejoin="round"/>
<path d="M57.2556 5.38682C58.7504 7.45351 58.2985 10.3333 56.2127 11.8918L49.7119 16.7028C44.2193 20.7345 39.9781 24.2581 36.9884 27.2734C29.2362 34.8287 25.3079 42.655 25.2036 50.7185L25.8293 53.124L26.5941 54.4792L27.5328 55.089L30.6267 55.6989L39.4566 55.3939C45.9574 55.5972 51.4153 58.1721 55.7607 63.1186C59.689 67.5569 61.7748 73.1471 61.9834 79.8893C61.9834 87.8511 59.4457 94.3222 54.3702 99.3365C49.2947 104.317 42.7939 106.824 34.8331 106.824C21.3796 107.027 11.9587 100.082 6.6051 85.9538C4.44976 80.9057 3.40685 75.1122 3.51114 68.5733C3.40685 60.3066 5.0755 52.548 8.48233 45.2976C14.8788 31.2713 25.3426 19.6504 39.839 10.3672L50.8939 4.06549C53.0492 2.8458 55.8303 3.42177 57.2903 5.4207L57.2556 5.38682Z" fill="white" stroke="black" stroke-width="4" stroke-linecap="round" stroke-linejoin="round"/>
</svg>
