<?xml version="1.0" encoding="utf-8"?>
<!-- Generator: Adobe Illustrator 26.1.0, SVG Export Plug-In . SVG Version: 6.00 Build 0)  -->
<svg version="1.1" id="Layer_1" xmlns="http://www.w3.org/2000/svg" xmlns:xlink="http://www.w3.org/1999/xlink" x="0px" y="0px"
	 viewBox="0 0 744 475.3" style="enable-background:new 0 0 744 475.3;" xml:space="preserve">
<style type="text/css">
	.st0{fill:none;stroke:#CFFF08;stroke-width:4;}
</style>
<path class="st0" d="M187.4,185.1c6.4-9.1,9.6-19.9,9.6-32.2c0-10.1-1.9-18.5-5.7-25.5c-3.8-6.9-9.2-12.6-16.2-17.1
	c-7-4.5-15.4-8.2-25.1-11c-9.7-2.8-20.6-5.1-32.5-6.8c-12.8-1.9-23.5-3.8-32.1-5.7C76.8,85,70,83,65,80.9c-5-2.1-8.6-4.6-10.7-7.4
	c-2.1-2.8-3.1-6.1-3.1-9.9c0-9.6,4.3-16.5,13-20.4c8.7-4,19.8-6,33.2-6c14.5,0,26.5,2.7,36,8.2c9.5,5.5,14.7,14.4,15.6,26.7h40.9
	c0.4-21.8-7.3-38.9-23.1-51.4C150.8,8.2,128.3,2,98.9,2C79.4,2,63,4.5,49.6,9.5c-13.4,5-23.5,12.1-30.3,21.1C12.4,39.6,9,50.1,9,62
	c0,9.6,2.2,18,6.8,25c4.5,7,10.7,12.9,18.5,17.8c7.9,4.8,16.9,8.8,27.2,11.8c10.3,3,21.2,5.4,32.7,7.1c14.7,2.1,26.5,4.1,35.5,6.1
	c9,2,15.6,4.5,19.8,7.5c4.2,3,6.3,7.4,6.3,13c0,5.9-1.7,10.9-5,15.1c-3.4,4.2-8.5,7.4-15.4,9.7c-6.9,2.3-15.7,3.5-26.4,3.5
	c-11.7,0-22.3-1.6-31.8-4.9c-9.4-3.2-17-7.8-22.8-13.5c-5.8-5.8-9.1-12.2-9.9-19.3H2.1c-0.4,5.2,0.5,11.1,2.7,17.6
	c2.2,6.5,5.9,13,11.2,19.5c5.2,6.5,12,12.5,20.4,17.9c8.4,5.5,18.3,9.8,29.9,13c11.5,3.2,24.8,4.9,39.9,4.9
	c21.2,0,38.4-2.5,51.7-7.5C171.2,201.3,181,194.2,187.4,185.1z M397.1,186.2c7.2-8.4,11.7-17.9,13.4-28.6h-39.6
	c-2.5,7.1-8.1,12.9-16.8,17.4c-8.7,4.5-19.5,6.8-32.5,6.8c-11.7,0-21.8-1.9-30.3-5.7c-8.5-3.8-15.2-8.9-20.1-15.4
	c-4.9-6.5-7.9-13.7-9-21.7h149c1-20.3-1.7-37-8.3-50.1C396.2,75.8,386,66,372.4,59.5c-13.6-6.5-30.7-9.7-51.2-9.7
	c-20.1,0-37.7,3.3-52.7,9.7c-15,6.5-26.7,15.9-35.1,28.1c-8.4,12.3-12.6,27-12.6,44.2c0,17.2,4.3,31.9,12.9,44
	c8.6,12.2,20.5,21.4,35.8,27.8c15.3,6.4,32.9,9.6,52.8,9.6c17.8,0,32.9-2.4,45.3-7.2C380.1,201.2,389.9,194.6,397.1,186.2z
	 M282.5,90.8c9.4-6.6,21.7-9.9,36.8-9.9c15.3,0,27.4,3.1,36.3,9.3c8.9,6.2,13.9,14.5,14.9,25H264.3C267,105.5,273.1,97.4,282.5,90.8
	z M500.7,67.9c-4.8,5.3-8.7,10.9-11.6,16.7c-2.9,5.8-5.1,11.1-6.6,16V53.2h-40.9v156.2h40.9v-85.8c2.1-4.4,5.1-9,8.8-13.6
	c5.2-6.5,12.2-12,20.7-16.5c8.6-4.5,18.8-6.8,30.5-6.8V49.8c-9.2,0-17.3,1.7-24.2,5C511.4,58.2,505.5,62.5,500.7,67.9z M665.7,209.5
	l75.1-156.2h-44.6l-49.7,112.5L598.4,53.2h-45L627,209.5H665.7z M41.5,280.5H89v-35.8H41.5V280.5z M44.6,469.5h40.9V313.2H44.6
	V469.5z M255.4,433c-9.3,5.9-21.3,8.8-36,8.8c-10.9,0-20.9-1.8-29.9-5.5c-9-3.7-16.1-9.2-21.4-16.7c-5.2-7.4-7.9-16.7-7.9-27.8
	c0-11.3,2.7-20.7,8-28.1c5.3-7.4,12.5-13,21.4-16.8c8.9-3.8,18.8-5.7,29.7-5.7c13.6,0,25.3,2.9,34.9,8.8c9.6,5.9,16.2,14,19.8,24.5
	h37.4c-1.3-13.6-5.7-25.3-13.4-34.9c-7.7-9.6-18.1-17-31.3-22.2c-13.2-5.1-29-7.7-47.5-7.7c-19.3,0-36.5,3.1-51.7,9.4
	c-15.2,6.3-27.1,15.5-35.8,27.7c-8.7,12.2-13,27.1-13,45c0,17.8,4.3,32.7,13,44.8c8.7,12.1,20.6,21.2,35.8,27.4
	c15.2,6.2,32.4,9.3,51.7,9.3c18.4,0,34.4-2.6,47.8-7.7c13.4-5.1,23.9-12.6,31.6-22.5c7.6-9.8,12-21.6,13-35.2h-37.4
	C271.1,418.8,264.7,427.1,255.4,433z M486,319.5c-13.6-6.5-30.7-9.7-51.2-9.7c-20.1,0-37.7,3.3-52.7,9.7
	c-15,6.5-26.7,15.9-35.1,28.1c-8.4,12.3-12.6,27-12.6,44.2c0,17.2,4.3,31.9,12.9,44c8.6,12.2,20.5,21.4,35.8,27.8
	c15.3,6.4,32.9,9.6,52.8,9.6c17.8,0,32.9-2.4,45.3-7.2c12.4-4.8,22.2-11.4,29.4-19.8c7.2-8.4,11.7-17.9,13.4-28.6h-39.6
	c-2.5,7.1-8.1,12.9-16.8,17.4c-8.7,4.5-19.5,6.8-32.5,6.8c-11.7,0-21.8-1.9-30.3-5.7c-8.5-3.8-15.2-8.9-20.1-15.4
	c-4.9-6.5-7.9-13.7-9-21.7h149c1-20.3-1.7-37-8.3-50.1C509.7,335.8,499.6,326,486,319.5z M377.9,375.2c2.7-9.6,8.8-17.8,18.2-24.4
	c9.4-6.6,21.7-9.9,36.8-9.9c15.3,0,27.4,3.1,36.3,9.3c8.9,6.2,13.9,14.5,14.9,25H377.9z M682.2,393.2c-5.9-3.2-12.5-5.9-20-8
	c-7.4-2.1-15.2-4-23.4-5.7c-9.6-1.7-17.7-3.2-24-4.7c-6.4-1.5-11.2-3.4-14.5-5.8c-3.3-2.4-4.9-5.8-4.9-10.2c0-5.4,2.6-9.7,7.9-12.9
	c5.2-3.1,13-4.7,23.3-4.7c10.5,0,18.2,1.7,23.3,5.2c5,3.5,8.4,9.1,10.1,16.8H696c0-10.5-2.6-19.8-7.7-27.8
	c-5.1-8.1-12.8-14.4-23.1-18.9c-10.3-4.5-23.2-6.8-38.7-6.8c-10.3,0-19.9,1.1-28.8,3.1c-8.9,2.1-16.7,5.1-23.3,9.1
	c-6.6,4-11.7,8.9-15.4,14.8c-3.7,5.9-5.5,12.6-5.5,20.1c0,7.8,1.8,14.3,5.5,19.6c3.7,5.3,8.6,9.7,14.9,13.2s13.5,6.2,21.7,8.3
	c8.2,2.1,16.7,3.9,25.5,5.3c8.8,1.3,16,2.6,21.7,4.1c5.7,1.5,9.8,3.4,12.6,5.8c2.7,2.4,4.1,5.8,4.1,10.2c0,3.6-0.8,6.8-2.5,9.6
	c-1.7,2.8-4.7,5-9.1,6.4c-4.4,1.5-10.6,2.2-18.5,2.2c-11.7,0-21.2-2.2-28.5-6.8c-7.2-4.5-12-10.3-14.3-17.4h-37.7
	c-0.4,2.9,0,6.7,1.3,11.3c1.3,4.6,3.6,9.5,7.1,14.6c3.5,5.1,8.3,10,14.6,14.5c6.3,4.5,14.2,8.2,23.7,11c9.5,2.8,20.9,4.2,34.1,4.2
	c14.9,0,27.7-1.8,38.4-5.5c10.7-3.7,18.9-9,24.7-15.9c5.8-6.9,8.6-15.4,8.6-25.5c0-8.2-1.7-14.9-5.2-20.3S688,396.5,682.2,393.2z"/>
</svg>
