<svg width="116" height="20" viewBox="0 0 116 20" fill="none" xmlns="http://www.w3.org/2000/svg">
<mask id="path-1-inside-1_4_87944" fill="#231f20">
<path fill-rule="evenodd" clip-rule="evenodd" d="M9.07088 1.34965C9.41462 0.533189 10.5854 0.53319 10.9291 1.34965L12.9579 6.16854C13.1029 6.51274 13.4306 6.74792 13.8067 6.7777L19.0727 7.19478C19.9649 7.26545 20.3267 8.36544 19.6469 8.94071L15.6348 12.336C15.3482 12.5785 15.223 12.9591 15.3106 13.3216L16.5363 18.3983C16.744 19.2584 15.7969 19.9383 15.033 19.4774L10.5245 16.7569C10.2025 16.5625 9.7975 16.5625 9.47548 16.7569L4.96699 19.4774C4.20311 19.9383 3.25596 19.2584 3.46363 18.3983L4.68942 13.3216C4.77698 12.9591 4.65182 12.5785 4.36526 12.336L0.353062 8.94071C-0.326718 8.36544 0.0350679 7.26545 0.927291 7.19478L6.19336 6.7777C6.5695 6.74792 6.89716 6.51274 7.04207 6.16854L9.07088 1.34965ZM33.0709 1.34965C33.4146 0.533189 34.5854 0.53319 34.9291 1.34965L36.9579 6.16854C37.1029 6.51274 37.4306 6.74792 37.8067 6.7777L43.0727 7.19478C43.9649 7.26545 44.3267 8.36544 43.6469 8.94071L39.6348 12.336C39.3482 12.5785 39.223 12.9591 39.3106 13.3216L40.5363 18.3983C40.744 19.2584 39.7969 19.9383 39.033 19.4774L34.5245 16.7569C34.2025 16.5625 33.7975 16.5625 33.4755 16.7569L28.967 19.4774C28.2031 19.9383 27.256 19.2584 27.4636 18.3983L28.6894 13.3216C28.777 12.9591 28.6518 12.5785 28.3653 12.336L24.3531 8.94071C23.6733 8.36544 24.0351 7.26545 24.9273 7.19478L30.1934 6.7777C30.5695 6.74792 30.8972 6.51274 31.0421 6.16854L33.0709 1.34965ZM58.9291 1.34965C58.5854 0.53319 57.4146 0.533189 57.0709 1.34965L55.0421 6.16854C54.8972 6.51274 54.5695 6.74792 54.1934 6.7777L48.9273 7.19478C48.0351 7.26545 47.6733 8.36544 48.3531 8.94071L52.3653 12.336C52.6518 12.5785 52.777 12.9591 52.6894 13.3216L51.4636 18.3983C51.256 19.2584 52.2031 19.9383 52.967 19.4774L57.4755 16.7569C57.7975 16.5625 58.2025 16.5625 58.5245 16.7569L63.033 19.4774C63.7969 19.9383 64.744 19.2584 64.5363 18.3983L63.3106 13.3216C63.223 12.9591 63.3482 12.5785 63.6348 12.336L67.6469 8.94071C68.3267 8.36544 67.9649 7.26545 67.0727 7.19478L61.8067 6.7777C61.4306 6.74792 61.1029 6.51274 60.9579 6.16854L58.9291 1.34965ZM81.0709 1.34965C81.4146 0.533189 82.5854 0.53319 82.9291 1.34965L84.9579 6.16854C85.1029 6.51274 85.4306 6.74792 85.8067 6.7777L91.0727 7.19478C91.9649 7.26545 92.3267 8.36544 91.6469 8.94071L87.6348 12.336C87.3482 12.5785 87.223 12.9591 87.3106 13.3216L88.5363 18.3983C88.744 19.2584 87.7969 19.9383 87.033 19.4774L82.5245 16.7569C82.2025 16.5625 81.7975 16.5625 81.4755 16.7569L76.967 19.4774C76.2031 19.9383 75.256 19.2584 75.4636 18.3983L76.6894 13.3216C76.777 12.9591 76.6518 12.5785 76.3653 12.336L72.3531 8.94071C71.6733 8.36544 72.0351 7.26545 72.9273 7.19478L78.1934 6.7777C78.5695 6.74792 78.8972 6.51274 79.0421 6.16854L81.0709 1.34965ZM106.929 1.34965C106.585 0.53319 105.415 0.533189 105.071 1.34965L103.042 6.16854C102.897 6.51274 102.569 6.74792 102.193 6.7777L96.9273 7.19478C96.0351 7.26545 95.6733 8.36544 96.3531 8.94071L100.365 12.336C100.652 12.5785 100.777 12.9591 100.689 13.3216L99.4636 18.3983C99.256 19.2584 100.203 19.9383 100.967 19.4774L105.475 16.7569C105.798 16.5625 106.202 16.5625 106.525 16.7569L111.033 19.4774C111.797 19.9383 112.744 19.2584 112.536 18.3983L111.311 13.3216C111.223 12.9591 111.348 12.5785 111.635 12.336L115.647 8.94071C116.327 8.36544 115.965 7.26545 115.073 7.19478L109.807 6.7777C109.431 6.74792 109.103 6.51274 108.958 6.16854L106.929 1.34965Z"/>
</mask>
<path fill-rule="evenodd" clip-rule="evenodd" d="M9.07088 1.34965C9.41462 0.533189 10.5854 0.53319 10.9291 1.34965L12.9579 6.16854C13.1029 6.51274 13.4306 6.74792 13.8067 6.7777L19.0727 7.19478C19.9649 7.26545 20.3267 8.36544 19.6469 8.94071L15.6348 12.336C15.3482 12.5785 15.223 12.9591 15.3106 13.3216L16.5363 18.3983C16.744 19.2584 15.7969 19.9383 15.033 19.4774L10.5245 16.7569C10.2025 16.5625 9.7975 16.5625 9.47548 16.7569L4.96699 19.4774C4.20311 19.9383 3.25596 19.2584 3.46363 18.3983L4.68942 13.3216C4.77698 12.9591 4.65182 12.5785 4.36526 12.336L0.353062 8.94071C-0.326718 8.36544 0.0350679 7.26545 0.927291 7.19478L6.19336 6.7777C6.5695 6.74792 6.89716 6.51274 7.04207 6.16854L9.07088 1.34965ZM33.0709 1.34965C33.4146 0.533189 34.5854 0.53319 34.9291 1.34965L36.9579 6.16854C37.1029 6.51274 37.4306 6.74792 37.8067 6.7777L43.0727 7.19478C43.9649 7.26545 44.3267 8.36544 43.6469 8.94071L39.6348 12.336C39.3482 12.5785 39.223 12.9591 39.3106 13.3216L40.5363 18.3983C40.744 19.2584 39.7969 19.9383 39.033 19.4774L34.5245 16.7569C34.2025 16.5625 33.7975 16.5625 33.4755 16.7569L28.967 19.4774C28.2031 19.9383 27.256 19.2584 27.4636 18.3983L28.6894 13.3216C28.777 12.9591 28.6518 12.5785 28.3653 12.336L24.3531 8.94071C23.6733 8.36544 24.0351 7.26545 24.9273 7.19478L30.1934 6.7777C30.5695 6.74792 30.8972 6.51274 31.0421 6.16854L33.0709 1.34965ZM58.9291 1.34965C58.5854 0.53319 57.4146 0.533189 57.0709 1.34965L55.0421 6.16854C54.8972 6.51274 54.5695 6.74792 54.1934 6.7777L48.9273 7.19478C48.0351 7.26545 47.6733 8.36544 48.3531 8.94071L52.3653 12.336C52.6518 12.5785 52.777 12.9591 52.6894 13.3216L51.4636 18.3983C51.256 19.2584 52.2031 19.9383 52.967 19.4774L57.4755 16.7569C57.7975 16.5625 58.2025 16.5625 58.5245 16.7569L63.033 19.4774C63.7969 19.9383 64.744 19.2584 64.5363 18.3983L63.3106 13.3216C63.223 12.9591 63.3482 12.5785 63.6348 12.336L67.6469 8.94071C68.3267 8.36544 67.9649 7.26545 67.0727 7.19478L61.8067 6.7777C61.4306 6.74792 61.1029 6.51274 60.9579 6.16854L58.9291 1.34965ZM81.0709 1.34965C81.4146 0.533189 82.5854 0.53319 82.9291 1.34965L84.9579 6.16854C85.1029 6.51274 85.4306 6.74792 85.8067 6.7777L91.0727 7.19478C91.9649 7.26545 92.3267 8.36544 91.6469 8.94071L87.6348 12.336C87.3482 12.5785 87.223 12.9591 87.3106 13.3216L88.5363 18.3983C88.744 19.2584 87.7969 19.9383 87.033 19.4774L82.5245 16.7569C82.2025 16.5625 81.7975 16.5625 81.4755 16.7569L76.967 19.4774C76.2031 19.9383 75.256 19.2584 75.4636 18.3983L76.6894 13.3216C76.777 12.9591 76.6518 12.5785 76.3653 12.336L72.3531 8.94071C71.6733 8.36544 72.0351 7.26545 72.9273 7.19478L78.1934 6.7777C78.5695 6.74792 78.8972 6.51274 79.0421 6.16854L81.0709 1.34965ZM106.929 1.34965C106.585 0.53319 105.415 0.533189 105.071 1.34965L103.042 6.16854C102.897 6.51274 102.569 6.74792 102.193 6.7777L96.9273 7.19478C96.0351 7.26545 95.6733 8.36544 96.3531 8.94071L100.365 12.336C100.652 12.5785 100.777 12.9591 100.689 13.3216L99.4636 18.3983C99.256 19.2584 100.203 19.9383 100.967 19.4774L105.475 16.7569C105.798 16.5625 106.202 16.5625 106.525 16.7569L111.033 19.4774C111.797 19.9383 112.744 19.2584 112.536 18.3983L111.311 13.3216C111.223 12.9591 111.348 12.5785 111.635 12.336L115.647 8.94071C116.327 8.36544 115.965 7.26545 115.073 7.19478L109.807 6.7777C109.431 6.74792 109.103 6.51274 108.958 6.16854L106.929 1.34965Z" fill="url(#paint0_linear_4_87944)"/>
<path d="M10.9291 1.34965L11.3899 1.15564L11.3899 1.15564L10.9291 1.34965ZM9.07088 1.34965L8.61005 1.15563L8.61005 1.15564L9.07088 1.34965ZM12.9579 6.16854L12.4971 6.36255L12.4971 6.36265L12.9579 6.16854ZM13.8067 6.7777L13.7672 7.27614L13.8067 6.7777ZM19.0727 7.19478L19.1121 6.69634V6.69634L19.0727 7.19478ZM19.6469 8.94071L19.9699 9.32238L19.6469 8.94071ZM15.6348 12.336L15.3118 11.9543L15.3117 11.9543L15.6348 12.336ZM15.3106 13.3216L15.7966 13.2043L15.7966 13.2043L15.3106 13.3216ZM16.5363 18.3983L17.0224 18.281L17.0224 18.281L16.5363 18.3983ZM15.033 19.4774L14.7747 19.9055L14.7747 19.9055L15.033 19.4774ZM10.5245 16.7569L10.2662 17.185L10.2662 17.185L10.5245 16.7569ZM9.47548 16.7569L9.7338 17.185L9.73382 17.1849L9.47548 16.7569ZM4.96699 19.4774L5.22529 19.9055L5.22532 19.9055L4.96699 19.4774ZM3.46363 18.3983L2.9776 18.281L3.46363 18.3983ZM4.68942 13.3216L4.20339 13.2043L4.20339 13.2043L4.68942 13.3216ZM4.36526 12.336L4.68829 11.9543L4.68824 11.9543L4.36526 12.336ZM0.353062 8.94071L0.0300686 9.32238L0.0300725 9.32238L0.353062 8.94071ZM0.927291 7.19478L0.887814 6.69634L0.887813 6.69634L0.927291 7.19478ZM6.19336 6.7777L6.15388 6.27927H6.15388L6.19336 6.7777ZM7.04207 6.16854L6.58124 5.97453L6.58124 5.97453L7.04207 6.16854ZM34.9291 1.34965L35.3899 1.15564L35.3899 1.15563L34.9291 1.34965ZM33.0709 1.34965L32.6101 1.15563V1.15564L33.0709 1.34965ZM36.9579 6.16854L36.4971 6.36255L36.4971 6.36265L36.9579 6.16854ZM37.8067 6.7777L37.8461 6.27927L37.8067 6.7777ZM43.0727 7.19478L43.1121 6.69634V6.69634L43.0727 7.19478ZM43.6469 8.94071L43.9699 9.32238V9.32238L43.6469 8.94071ZM39.6348 12.336L39.3118 11.9543L39.3117 11.9543L39.6348 12.336ZM39.3106 13.3216L39.7966 13.2043L39.7966 13.2043L39.3106 13.3216ZM40.5363 18.3983L41.0224 18.281V18.281L40.5363 18.3983ZM39.033 19.4774L38.7747 19.9055L38.7747 19.9055L39.033 19.4774ZM34.5245 16.7569L34.2662 17.185L34.2662 17.185L34.5245 16.7569ZM33.4755 16.7569L33.7338 17.185L33.7338 17.1849L33.4755 16.7569ZM28.967 19.4774L29.2253 19.9055L29.2253 19.9055L28.967 19.4774ZM27.4636 18.3983L26.9776 18.281L27.4636 18.3983ZM28.6894 13.3216L28.2034 13.2043L28.2034 13.2043L28.6894 13.3216ZM28.3653 12.336L28.6883 11.9543L28.6882 11.9543L28.3653 12.336ZM24.3531 8.94071L24.0301 9.32238L24.0301 9.32238L24.3531 8.94071ZM24.9273 7.19478L24.8878 6.69634L24.8878 6.69634L24.9273 7.19478ZM30.1934 6.7777L30.1539 6.27927H30.1539L30.1934 6.7777ZM31.0421 6.16854L30.5812 5.97453V5.97453L31.0421 6.16854ZM57.0709 1.34965L56.6101 1.15563V1.15564L57.0709 1.34965ZM58.9291 1.34965L59.3899 1.15564L59.3899 1.15563L58.9291 1.34965ZM55.0421 6.16854L54.5812 5.97453L54.5812 5.97453L55.0421 6.16854ZM54.1934 6.7777L54.1539 6.27927H54.1539L54.1934 6.7777ZM48.9273 7.19478L48.8878 6.69634V6.69634L48.9273 7.19478ZM48.3531 8.94071L48.0301 9.32238L48.0301 9.32238L48.3531 8.94071ZM52.3653 12.336L52.6883 11.9543L52.6882 11.9543L52.3653 12.336ZM52.6894 13.3216L52.2034 13.2043L52.2034 13.2043L52.6894 13.3216ZM51.4636 18.3983L51.9497 18.5157L51.4636 18.3983ZM52.967 19.4774L53.2253 19.9055L53.2253 19.9055L52.967 19.4774ZM57.4755 16.7569L57.7338 17.185L57.7338 17.1849L57.4755 16.7569ZM58.5245 16.7569L58.2662 17.185L58.2662 17.185L58.5245 16.7569ZM63.033 19.4774L62.7747 19.9055L62.7747 19.9055L63.033 19.4774ZM64.5363 18.3983L65.0224 18.281L65.0224 18.281L64.5363 18.3983ZM63.3106 13.3216L63.7966 13.2043L63.7966 13.2043L63.3106 13.3216ZM63.6348 12.336L63.3118 11.9543L63.3117 11.9543L63.6348 12.336ZM67.6469 8.94071L67.9699 9.32238L67.6469 8.94071ZM67.0727 7.19478L67.1121 6.69634L67.0727 7.19478ZM61.8067 6.7777L61.8461 6.27927L61.8067 6.7777ZM60.9579 6.16854L60.4971 6.36255L60.4971 6.36265L60.9579 6.16854ZM82.9291 1.34965L83.3899 1.15564V1.15564L82.9291 1.34965ZM81.0709 1.34965L80.6101 1.15563V1.15564L81.0709 1.34965ZM84.9579 6.16854L84.4971 6.36255L84.4971 6.36266L84.9579 6.16854ZM85.8067 6.7777L85.7672 7.27614V7.27614L85.8067 6.7777ZM91.0727 7.19478L91.1121 6.69634L91.0727 7.19478ZM91.6469 8.94071L91.9699 9.32238V9.32238L91.6469 8.94071ZM87.6348 12.336L87.3118 11.9543L87.3117 11.9543L87.6348 12.336ZM87.3106 13.3216L87.7966 13.2043V13.2043L87.3106 13.3216ZM88.5363 18.3983L89.0224 18.281L89.0224 18.281L88.5363 18.3983ZM87.033 19.4774L86.7747 19.9055L86.7747 19.9055L87.033 19.4774ZM82.5245 16.7569L82.2662 17.185V17.185L82.5245 16.7569ZM81.4755 16.7569L81.7338 17.185L81.7338 17.1849L81.4755 16.7569ZM76.967 19.4774L77.2253 19.9055L77.2253 19.9055L76.967 19.4774ZM75.4636 18.3983L74.9776 18.281V18.281L75.4636 18.3983ZM76.6894 13.3216L76.2034 13.2043V13.2043L76.6894 13.3216ZM76.3653 12.336L76.6883 11.9543L76.6882 11.9543L76.3653 12.336ZM72.3531 8.94071L72.0301 9.32238V9.32238L72.3531 8.94071ZM72.9273 7.19478L72.8878 6.69634L72.9273 7.19478ZM78.1934 6.7777L78.1539 6.27927L78.1934 6.7777ZM79.0421 6.16854L79.5029 6.36255V6.36255L79.0421 6.16854ZM105.071 1.34965L104.61 1.15563V1.15564L105.071 1.34965ZM106.929 1.34965L107.39 1.15564V1.15564L106.929 1.34965ZM103.042 6.16854L103.503 6.36255V6.36255L103.042 6.16854ZM102.193 6.7777L102.154 6.27927L102.193 6.7777ZM96.9273 7.19478L96.8878 6.69634L96.9273 7.19478ZM96.3531 8.94071L96.0301 9.32238V9.32238L96.3531 8.94071ZM100.365 12.336L100.688 11.9543L100.688 11.9543L100.365 12.336ZM100.689 13.3216L100.203 13.2043V13.2043L100.689 13.3216ZM99.4636 18.3983L98.9776 18.281V18.281L99.4636 18.3983ZM100.967 19.4774L101.225 19.9055L101.225 19.9055L100.967 19.4774ZM105.475 16.7569L105.734 17.185L105.734 17.1849L105.475 16.7569ZM106.525 16.7569L106.266 17.185V17.185L106.525 16.7569ZM111.033 19.4774L110.775 19.9055L110.775 19.9055L111.033 19.4774ZM112.536 18.3983L113.022 18.281L113.022 18.281L112.536 18.3983ZM111.311 13.3216L111.797 13.2043V13.2043L111.311 13.3216ZM111.635 12.336L111.312 11.9543L111.312 11.9543L111.635 12.336ZM115.647 8.94071L115.97 9.32238V9.32238L115.647 8.94071ZM115.073 7.19478L115.112 6.69634L115.073 7.19478ZM109.807 6.7777L109.767 7.27614V7.27614L109.807 6.7777ZM108.958 6.16854L108.497 6.36255L108.497 6.36266L108.958 6.16854ZM11.3899 1.15564C10.8744 -0.0688033 9.12557 -0.0688071 8.61005 1.15563L9.5317 1.54366C9.70368 1.13519 10.2963 1.13518 10.4683 1.54367L11.3899 1.15564ZM13.4187 5.97453L11.3899 1.15564L10.4683 1.54366L12.4971 6.36255L13.4187 5.97453ZM13.8461 6.27927C13.6539 6.26404 13.4902 6.14424 13.4187 5.97443L12.4971 6.36265C12.7156 6.88124 13.2072 7.23179 13.7672 7.27614L13.8461 6.27927ZM19.1121 6.69634L13.8461 6.27927L13.7672 7.27614L19.0332 7.69322L19.1121 6.69634ZM19.9699 9.32238C20.9986 8.45183 20.4387 6.80141 19.1121 6.69634L19.0332 7.69322C19.4911 7.72949 19.6547 8.27905 19.3239 8.55903L19.9699 9.32238ZM15.9578 12.7176L19.9699 9.32238L19.3239 8.55903L15.3118 11.9543L15.9578 12.7176ZM15.7966 13.2043C15.7538 13.0271 15.8143 12.8391 15.9578 12.7176L15.3117 11.9543C14.8821 12.318 14.6922 12.8911 14.8245 13.439L15.7966 13.2043ZM17.0224 18.281L15.7966 13.2043L14.8245 13.439L16.0503 18.5157L17.0224 18.281ZM14.7747 19.9055C15.9043 20.587 17.3382 19.5893 17.0224 18.281L16.0503 18.5157C16.1498 18.9276 15.6895 19.2896 15.2913 19.0493L14.7747 19.9055ZM10.2662 17.185L14.7747 19.9055L15.2913 19.0493L10.7829 16.3288L10.2662 17.185ZM9.73382 17.1849C9.89696 17.0865 10.103 17.0865 10.2662 17.185L10.7829 16.3288C10.302 16.0386 9.69804 16.0386 9.21714 16.3288L9.73382 17.1849ZM5.22532 19.9055L9.7338 17.185L9.21715 16.3288L4.70866 19.0493L5.22532 19.9055ZM2.9776 18.281C2.6617 19.5893 4.09577 20.587 5.22529 19.9055L4.70868 19.0493C4.31046 19.2896 3.85021 18.9276 3.94967 18.5157L2.9776 18.281ZM4.20339 13.2043L2.9776 18.281L3.94967 18.5157L5.17545 13.439L4.20339 13.2043ZM4.04223 12.7176C4.1857 12.8391 4.2462 13.027 4.20339 13.2043L5.17545 13.439C5.30776 12.8911 5.11795 12.318 4.68829 11.9543L4.04223 12.7176ZM0.0300725 9.32238L4.04227 12.7176L4.68824 11.9543L0.676052 8.55903L0.0300725 9.32238ZM0.887813 6.69634C-0.43876 6.80141 -0.998652 8.45182 0.0300686 9.32238L0.676056 8.55903C0.345217 8.27906 0.508896 7.72949 0.966769 7.69322L0.887813 6.69634ZM6.15388 6.27927L0.887814 6.69634L0.966768 7.69322L6.23283 7.27614L6.15388 6.27927ZM6.58124 5.97453C6.50979 6.14424 6.34616 6.26404 6.15388 6.27927L6.23283 7.27614C6.79284 7.23179 7.28452 6.88124 7.50289 6.36255L6.58124 5.97453ZM8.61005 1.15564L6.58124 5.97453L7.50289 6.36255L9.5317 1.54366L8.61005 1.15564ZM35.3899 1.15563C34.8744 -0.068803 33.1256 -0.0688068 32.6101 1.15563L33.5317 1.54366C33.7037 1.13519 34.2963 1.13518 34.4683 1.54367L35.3899 1.15563ZM37.4187 5.97453L35.3899 1.15564L34.4683 1.54366L36.4971 6.36255L37.4187 5.97453ZM37.8461 6.27927C37.6539 6.26404 37.4902 6.14424 37.4187 5.97443L36.4971 6.36265C36.7156 6.88124 37.2072 7.23179 37.7672 7.27614L37.8461 6.27927ZM43.1121 6.69634L37.8461 6.27927L37.7672 7.27614L43.0332 7.69322L43.1121 6.69634ZM43.9699 9.32238C44.9986 8.45182 44.4387 6.80141 43.1121 6.69634L43.0332 7.69322C43.491 7.72949 43.6547 8.27905 43.3239 8.55903L43.9699 9.32238ZM39.9578 12.7176L43.9699 9.32238L43.3239 8.55903L39.3118 11.9543L39.9578 12.7176ZM39.7966 13.2043C39.7538 13.0271 39.8143 12.8391 39.9578 12.7176L39.3117 11.9543C38.8821 12.318 38.6922 12.8911 38.8245 13.439L39.7966 13.2043ZM41.0224 18.281L39.7966 13.2043L38.8245 13.439L40.0503 18.5157L41.0224 18.281ZM38.7747 19.9055C39.9043 20.587 41.3382 19.5893 41.0224 18.281L40.0503 18.5157C40.1498 18.9276 39.6895 19.2896 39.2913 19.0493L38.7747 19.9055ZM34.2662 17.185L38.7747 19.9055L39.2913 19.0493L34.7829 16.3288L34.2662 17.185ZM33.7338 17.1849C33.897 17.0865 34.103 17.0865 34.2662 17.185L34.7829 16.3288C34.302 16.0386 33.698 16.0386 33.2171 16.3288L33.7338 17.1849ZM29.2253 19.9055L33.7338 17.185L33.2172 16.3288L28.7087 19.0493L29.2253 19.9055ZM26.9776 18.281C26.6617 19.5893 28.0958 20.587 29.2253 19.9055L28.7087 19.0493C28.3105 19.2896 27.8502 18.9276 27.9497 18.5157L26.9776 18.281ZM28.2034 13.2043L26.9776 18.281L27.9497 18.5157L29.1755 13.439L28.2034 13.2043ZM28.0422 12.7176C28.1857 12.8391 28.2462 13.027 28.2034 13.2043L29.1755 13.439C29.3078 12.8911 29.1179 12.318 28.6883 11.9543L28.0422 12.7176ZM24.0301 9.32238L28.0423 12.7176L28.6882 11.9543L24.6761 8.55903L24.0301 9.32238ZM24.8878 6.69634C23.5612 6.80141 23.0013 8.45182 24.0301 9.32238L24.6761 8.55903C24.3452 8.27906 24.5089 7.72949 24.9668 7.69322L24.8878 6.69634ZM30.1539 6.27927L24.8878 6.69634L24.9668 7.69322L30.2328 7.27614L30.1539 6.27927ZM30.5812 5.97453C30.5098 6.14424 30.3462 6.26404 30.1539 6.27927L30.2328 7.27614C30.7928 7.23179 31.2845 6.88124 31.5029 6.36255L30.5812 5.97453ZM32.6101 1.15564L30.5812 5.97453L31.5029 6.36255L33.5317 1.54366L32.6101 1.15564ZM57.5317 1.54366C57.7037 1.13519 58.2963 1.13518 58.4683 1.54367L59.3899 1.15563C58.8744 -0.068803 57.1256 -0.0688068 56.6101 1.15563L57.5317 1.54366ZM55.5029 6.36255L57.5317 1.54366L56.6101 1.15564L54.5812 5.97453L55.5029 6.36255ZM54.2328 7.27614C54.7928 7.23179 55.2845 6.88124 55.5029 6.36255L54.5812 5.97453C54.5098 6.14424 54.3462 6.26404 54.1539 6.27927L54.2328 7.27614ZM48.9668 7.69322L54.2328 7.27614L54.1539 6.27927L48.8878 6.69634L48.9668 7.69322ZM48.6761 8.55903C48.3452 8.27906 48.5089 7.72949 48.9668 7.69322L48.8878 6.69634C47.5612 6.80141 47.0013 8.45182 48.0301 9.32238L48.6761 8.55903ZM52.6882 11.9543L48.6761 8.55903L48.0301 9.32238L52.0423 12.7176L52.6882 11.9543ZM53.1754 13.439C53.3078 12.8911 53.1179 12.318 52.6883 11.9543L52.0422 12.7176C52.1857 12.8391 52.2462 13.027 52.2034 13.2043L53.1754 13.439ZM51.9497 18.5157L53.1755 13.439L52.2034 13.2043L50.9776 18.281L51.9497 18.5157ZM52.7087 19.0493C52.3105 19.2896 51.8502 18.9276 51.9497 18.5157L50.9776 18.281C50.6617 19.5893 52.0958 20.587 53.2253 19.9055L52.7087 19.0493ZM57.2172 16.3288L52.7087 19.0493L53.2253 19.9055L57.7338 17.185L57.2172 16.3288ZM58.7829 16.3288C58.302 16.0386 57.698 16.0386 57.2171 16.3288L57.7338 17.1849C57.897 17.0865 58.103 17.0865 58.2662 17.185L58.7829 16.3288ZM63.2913 19.0493L58.7829 16.3288L58.2662 17.185L62.7747 19.9055L63.2913 19.0493ZM64.0503 18.5157C64.1498 18.9276 63.6895 19.2896 63.2913 19.0493L62.7747 19.9055C63.9043 20.587 65.3382 19.5892 65.0224 18.281L64.0503 18.5157ZM62.8245 13.439L64.0503 18.5157L65.0224 18.281L63.7966 13.2043L62.8245 13.439ZM63.3117 11.9543C62.8821 12.318 62.6922 12.8911 62.8245 13.439L63.7966 13.2043C63.7538 13.0271 63.8143 12.8391 63.9578 12.7176L63.3117 11.9543ZM67.3239 8.55903L63.3118 11.9543L63.9578 12.7176L67.9699 9.32238L67.3239 8.55903ZM67.0332 7.69322C67.4911 7.72949 67.6547 8.27905 67.3239 8.55903L67.9699 9.32238C68.9986 8.45182 68.4387 6.80141 67.1121 6.69634L67.0332 7.69322ZM61.7672 7.27614L67.0332 7.69322L67.1121 6.69634L61.8461 6.27927L61.7672 7.27614ZM60.4971 6.36265C60.7156 6.88124 61.2072 7.23179 61.7672 7.27614L61.8461 6.27927C61.6539 6.26404 61.4902 6.14424 61.4187 5.97443L60.4971 6.36265ZM58.4683 1.54366L60.4971 6.36255L61.4187 5.97453L59.3899 1.15564L58.4683 1.54366ZM83.3899 1.15564C82.8744 -0.0688035 81.1256 -0.0688074 80.6101 1.15563L81.5317 1.54366C81.7037 1.13519 82.2963 1.13518 82.4683 1.54366L83.3899 1.15564ZM85.4187 5.97453L83.3899 1.15564L82.4683 1.54366L84.4971 6.36255L85.4187 5.97453ZM85.8461 6.27927C85.6539 6.26404 85.4902 6.14424 85.4187 5.97442L84.4971 6.36266C84.7156 6.88123 85.2072 7.23179 85.7672 7.27614L85.8461 6.27927ZM91.1121 6.69634L85.8461 6.27927L85.7672 7.27614L91.0332 7.69322L91.1121 6.69634ZM91.9699 9.32238C92.9986 8.45182 92.4387 6.80141 91.1121 6.69634L91.0332 7.69322C91.4911 7.72949 91.6547 8.27905 91.3239 8.55903L91.9699 9.32238ZM87.9578 12.7176L91.9699 9.32238L91.3239 8.55903L87.3118 11.9543L87.9578 12.7176ZM87.7966 13.2043C87.7538 13.0271 87.8143 12.8391 87.9578 12.7176L87.3117 11.9543C86.8821 12.318 86.6922 12.8911 86.8245 13.439L87.7966 13.2043ZM89.0224 18.281L87.7966 13.2043L86.8245 13.439L88.0503 18.5157L89.0224 18.281ZM86.7747 19.9055C87.9043 20.587 89.3382 19.5892 89.0224 18.281L88.0503 18.5157C88.1497 18.9276 87.6895 19.2896 87.2913 19.0493L86.7747 19.9055ZM82.2662 17.185L86.7747 19.9055L87.2913 19.0493L82.7829 16.3288L82.2662 17.185ZM81.7338 17.1849C81.897 17.0865 82.103 17.0865 82.2662 17.185L82.7829 16.3288C82.302 16.0386 81.698 16.0386 81.2171 16.3288L81.7338 17.1849ZM77.2253 19.9055L81.7338 17.185L81.2172 16.3288L76.7087 19.0493L77.2253 19.9055ZM74.9776 18.281C74.6617 19.5893 76.0958 20.587 77.2253 19.9055L76.7087 19.0493C76.3105 19.2896 75.8502 18.9276 75.9497 18.5157L74.9776 18.281ZM76.2034 13.2043L74.9776 18.281L75.9497 18.5157L77.1755 13.439L76.2034 13.2043ZM76.0422 12.7176C76.1857 12.8391 76.2462 13.027 76.2034 13.2043L77.1755 13.439C77.3078 12.8911 77.118 12.318 76.6883 11.9543L76.0422 12.7176ZM72.0301 9.32238L76.0423 12.7176L76.6882 11.9543L72.6761 8.55903L72.0301 9.32238ZM72.8878 6.69634C71.5612 6.80141 71.0013 8.45182 72.0301 9.32238L72.6761 8.55903C72.3452 8.27906 72.5089 7.72949 72.9668 7.69322L72.8878 6.69634ZM78.1539 6.27927L72.8878 6.69634L72.9668 7.69322L78.2328 7.27614L78.1539 6.27927ZM78.5812 5.97453C78.5098 6.14423 78.3462 6.26404 78.1539 6.27927L78.2328 7.27614C78.7928 7.23179 79.2845 6.88124 79.5029 6.36255L78.5812 5.97453ZM80.6101 1.15564L78.5812 5.97453L79.5029 6.36255L81.5317 1.54366L80.6101 1.15564ZM105.532 1.54366C105.704 1.13519 106.296 1.13518 106.468 1.54366L107.39 1.15564C106.874 -0.0688035 105.126 -0.0688074 104.61 1.15563L105.532 1.54366ZM103.503 6.36255L105.532 1.54366L104.61 1.15564L102.581 5.97453L103.503 6.36255ZM102.233 7.27614C102.793 7.23179 103.285 6.88124 103.503 6.36255L102.581 5.97453C102.51 6.14423 102.346 6.26404 102.154 6.27927L102.233 7.27614ZM96.9668 7.69322L102.233 7.27614L102.154 6.27927L96.8878 6.69634L96.9668 7.69322ZM96.6761 8.55903C96.3452 8.27906 96.5089 7.72949 96.9668 7.69322L96.8878 6.69634C95.5612 6.80141 95.0013 8.45182 96.0301 9.32238L96.6761 8.55903ZM100.688 11.9543L96.6761 8.55903L96.0301 9.32238L100.042 12.7176L100.688 11.9543ZM101.175 13.439C101.308 12.8911 101.118 12.318 100.688 11.9543L100.042 12.7176C100.186 12.8391 100.246 13.027 100.203 13.2043L101.175 13.439ZM99.9497 18.5157L101.175 13.439L100.203 13.2043L98.9776 18.281L99.9497 18.5157ZM100.709 19.0493C100.31 19.2896 99.8502 18.9276 99.9497 18.5157L98.9776 18.281C98.6617 19.5893 100.096 20.587 101.225 19.9055L100.709 19.0493ZM105.217 16.3288L100.709 19.0493L101.225 19.9055L105.734 17.185L105.217 16.3288ZM106.783 16.3288C106.302 16.0386 105.698 16.0386 105.217 16.3288L105.734 17.1849C105.897 17.0865 106.103 17.0865 106.266 17.185L106.783 16.3288ZM111.291 19.0493L106.783 16.3288L106.266 17.185L110.775 19.9055L111.291 19.0493ZM112.05 18.5157C112.15 18.9276 111.69 19.2896 111.291 19.0493L110.775 19.9055C111.904 20.587 113.338 19.5892 113.022 18.281L112.05 18.5157ZM110.825 13.439L112.05 18.5157L113.022 18.281L111.797 13.2043L110.825 13.439ZM111.312 11.9543C110.882 12.318 110.692 12.8911 110.825 13.439L111.797 13.2043C111.754 13.0271 111.814 12.8391 111.958 12.7176L111.312 11.9543ZM115.324 8.55903L111.312 11.9543L111.958 12.7176L115.97 9.32238L115.324 8.55903ZM115.033 7.69322C115.491 7.72949 115.655 8.27905 115.324 8.55903L115.97 9.32238C116.999 8.45182 116.439 6.80141 115.112 6.69634L115.033 7.69322ZM109.767 7.27614L115.033 7.69322L115.112 6.69634L109.846 6.27927L109.767 7.27614ZM108.497 6.36266C108.716 6.88123 109.207 7.23179 109.767 7.27614L109.846 6.27927C109.654 6.26404 109.49 6.14424 109.419 5.97442L108.497 6.36266ZM106.468 1.54366L108.497 6.36255L109.419 5.97453L107.39 1.15564L106.468 1.54366Z" fill="#231f20" fill-opacity="0.5" mask="url(#path-1-inside-1_4_87944)"/>
<defs>
<linearGradient id="paint0_linear_4_87944" x1="0" y1="0.737305" x2="114.73" y2="25.5067" gradientUnits="userSpaceOnUse">
<stop stop-color="#231f20"/>
<stop offset="1" stop-color="#231f20" stop-opacity="0.5"/>
</linearGradient>
</defs>
</svg>
